<svg width="240" height="61" viewBox="0 0 240 61" fill="none" xmlns="http://www.w3.org/2000/svg">
<g clip-path="url(#clip0_924_4476)">
<path d="M34.6128 46.758C34.6128 51.4564 33.0034 55.0028 29.796 57.3972C26.5886 59.7915 21.9758 61 15.969 61C12.7049 61 9.87155 60.8306 7.4575 60.4805C5.04345 60.1303 2.58406 59.4979 0.0793351 58.5605V46.4418C2.43672 47.4695 5.02078 48.3279 7.83151 48.9943C10.6422 49.6606 13.147 49.9994 15.3457 49.9994C18.6324 49.9994 20.2758 49.254 20.2758 47.7519C20.2758 46.9839 19.8111 46.2837 18.8931 45.6851C17.9751 45.0752 15.3003 43.9006 10.8689 42.1387C6.83415 40.4897 4.00076 38.6149 2.40272 36.5029C0.793351 34.4021 0 31.7367 0 28.5066C0 24.4294 1.57537 21.2557 4.73744 18.9856C7.89951 16.7154 12.3649 15.5747 18.1337 15.5747C21.0351 15.5747 23.7552 15.8909 26.3053 16.5234C28.8553 17.1559 31.5074 18.082 34.2501 19.2905L30.136 29.0487C28.1186 28.1452 25.9766 27.3772 23.7325 26.7447C21.4771 26.1122 19.6411 25.796 18.2131 25.796C15.731 25.796 14.4843 26.4059 14.4843 27.6143C14.4843 28.3597 14.915 29.0035 15.7877 29.5343C16.6604 30.0652 19.1651 31.1381 23.3018 32.7645C26.3846 34.0294 28.6853 35.2718 30.1927 36.4803C31.7114 37.6888 32.8221 39.1231 33.5361 40.7608C34.2501 42.3984 34.6014 44.3975 34.6014 46.7354L34.6128 46.758Z" fill="#6C60FF"/>
<path d="M59.6372 49.0393C61.6773 49.0393 64.1253 48.5311 66.9814 47.5259V58.5603C64.93 59.4413 62.992 60.0625 61.1332 60.4352C59.2859 60.8079 57.1098 60.9999 54.6278 60.9999C49.5277 60.9999 45.8442 59.7575 43.6002 57.2615C41.3448 54.7768 40.2228 50.9481 40.2228 45.7866V27.7159H34.896V21.5605L41.6508 16.8057L45.5722 7.5896H55.5118V16.3765H66.3127V27.7159H55.5118V44.7814C55.5118 47.6163 56.8832 49.0393 59.6259 49.0393H59.6372Z" fill="#6C60FF"/>
<path d="M99.4182 60.2319L96.5055 54.4267H96.1995C94.1481 56.9566 92.0741 58.6846 89.9434 59.6108C87.824 60.5369 85.0699 60.9999 81.7038 60.9999C77.5558 60.9999 74.303 59.7576 71.9116 57.2841C69.5316 54.8107 68.3416 51.3208 68.3416 46.837C68.3416 42.3532 69.9736 38.6939 73.2377 36.4012C76.5017 34.1197 81.2278 32.8322 87.416 32.5498L94.7601 32.3127V31.6915C94.7601 28.0773 92.9694 26.2703 89.3994 26.2703C86.1919 26.2703 82.1119 27.3545 77.1591 29.523L72.773 19.5389C77.8958 16.9074 84.3786 15.5859 92.1987 15.5859C97.8429 15.5859 102.218 16.9751 105.312 19.7648C108.406 22.5545 109.958 26.451 109.958 31.4543V60.2094H99.4296L99.4182 60.2319ZM88.1527 50.3156C89.9887 50.3156 91.5641 49.7396 92.8674 48.5763C94.1708 47.413 94.8281 45.9109 94.8281 44.0473V40.6365L91.3374 40.7946C86.3393 40.9753 83.8459 42.805 83.8459 46.2949C83.8459 48.9829 85.2853 50.3156 88.1527 50.3156Z" fill="#6C60FF"/>
<path d="M147.291 46.758C147.291 51.4564 145.682 55.0028 142.474 57.3972C139.267 59.7915 134.654 61 128.647 61C125.383 61 122.55 60.8306 120.136 60.4805C117.733 60.1303 115.263 59.4979 112.758 58.5605V46.4418C115.115 47.4695 117.699 48.3279 120.51 48.9943C123.321 49.6606 125.825 49.9994 128.024 49.9994C131.311 49.9994 132.954 49.254 132.954 47.7519C132.954 46.9839 132.49 46.2837 131.572 45.6851C130.654 45.0752 127.979 43.9006 123.547 42.1387C119.513 40.4897 116.679 38.6149 115.081 36.5029C113.472 34.4021 112.678 31.7367 112.678 28.5066C112.678 24.4294 114.254 21.2557 117.416 18.9856C120.578 16.7154 125.043 15.5747 130.812 15.5747C133.714 15.5747 136.434 15.8909 138.984 16.5234C141.534 17.1559 144.186 18.082 146.929 19.2905L142.814 29.0487C140.797 28.1452 138.655 27.3772 136.4 26.7447C134.144 26.1122 132.308 25.796 130.88 25.796C128.398 25.796 127.151 26.4059 127.151 27.6143C127.151 28.3597 127.582 29.0035 128.455 29.5343C129.316 30.0652 131.821 31.1381 135.969 32.7645C139.052 34.0294 141.352 35.2718 142.86 36.4803C144.379 37.6888 145.489 39.1231 146.203 40.7608C146.917 42.3984 147.269 44.3975 147.269 46.7354L147.291 46.758Z" fill="#6C60FF"/>
<path d="M176.441 60.232V36.3109C176.441 30.4266 174.696 27.4901 171.194 27.4901C168.712 27.4901 166.876 28.5292 165.697 30.6073C164.518 32.6854 163.929 36.1302 163.929 40.9641V60.2433H148.742V0H163.929V8.54971C163.929 12.4236 163.725 16.8284 163.306 21.7865H164.008C165.459 19.5164 167.182 17.9126 169.176 16.9865C171.171 16.0604 173.483 15.5973 176.124 15.5973C181.043 15.5973 184.873 17.0091 187.605 19.8326C190.336 22.6562 191.708 26.6091 191.708 31.6915V60.2207H176.441V60.232Z" fill="#6C60FF"/>
<path d="M217.627 49.0393C219.667 49.0393 222.116 48.5311 224.972 47.5259V58.5603C222.932 59.4413 220.982 60.0625 219.123 60.4352C217.276 60.8079 215.1 60.9999 212.618 60.9999C207.518 60.9999 203.834 59.7575 201.59 57.2615C199.335 54.7768 198.213 50.9481 198.213 45.7866V27.7159H192.886V21.5605L199.641 16.8057L203.562 7.5896H213.502V16.3765H224.303V27.7159H213.502V44.7814C213.502 47.6163 214.873 49.0393 217.616 49.0393H217.627Z" fill="#6C60FF"/>
<path d="M240 57.7812C240 59.5544 238.867 61.0001 237.473 61.0001H231.579C230.185 61.0001 229.052 59.5544 229.052 57.7812V53.128C229.052 51.3548 230.185 49.9092 231.579 49.9092H237.473C238.867 49.9092 240 51.3548 240 53.128V57.7812Z" fill="#6C60FF"/>
</g>
<defs>
<clipPath id="clip0_924_4476">
<rect width="240" height="61" fill="white"/>
</clipPath>
</defs>
</svg>
