<svg width="37" height="42" viewBox="0 0 37 42" fill="none" xmlns="http://www.w3.org/2000/svg">
<path d="M36.2246 32.7307C35.5603 34.1981 34.7739 35.5488 33.8629 36.7906C32.6211 38.4835 31.6043 39.6553 30.8207 40.3061C29.606 41.3742 28.3045 41.9212 26.9108 41.9523C25.9103 41.9523 24.7037 41.6801 23.2992 41.1279C21.8901 40.5783 20.5951 40.3061 19.4111 40.3061C18.1692 40.3061 16.8373 40.5783 15.4128 41.1279C13.986 41.6801 12.8367 41.9679 11.9579 41.9964C10.6214 42.0508 9.28933 41.4882 7.95966 40.3061C7.11096 39.5983 6.04946 38.385 4.77777 36.6662C3.4134 34.8307 2.29171 32.7022 1.41292 30.2756C0.471787 27.6546 0 25.1166 0 22.6594C0 19.8447 0.636104 17.417 1.9102 15.3827C2.91153 13.7487 4.24364 12.4596 5.9109 11.5134C7.57812 10.5671 9.37961 10.0849 11.3196 10.0541C12.3812 10.0541 13.7732 10.368 15.5031 10.985C17.2281 11.6041 18.3357 11.9181 18.8213 11.9181C19.1844 11.9181 20.4148 11.551 22.5007 10.8191C24.4733 10.1404 26.1381 9.85933 27.5019 9.97007C31.1976 10.2552 33.9741 11.6482 35.8205 14.1578C32.5153 16.0726 30.8803 18.7545 30.9129 22.1951C30.9427 24.8749 31.9595 27.105 33.9578 28.8757C34.8634 29.6975 35.8748 30.3327 37 30.7838C36.756 31.4604 36.4984 32.1086 36.2246 32.7307ZM27.7487 0.840249C27.7487 2.94071 26.9461 4.90193 25.3463 6.71722C23.4158 8.87524 21.0807 10.1222 18.5485 9.92546C18.5146 9.66139 18.4976 9.39559 18.4976 9.12953C18.4976 7.11309 19.4156 4.95507 21.046 3.19062C21.86 2.29723 22.8952 1.55441 24.1506 0.961841C25.4033 0.378114 26.5882 0.0552949 27.7026 0C27.7351 0.280791 27.7487 0.561652 27.7487 0.840249Z" fill="black"/>
</svg>
