<svg width="41" height="42" viewBox="0 0 41 42" fill="none" xmlns="http://www.w3.org/2000/svg">
<g clip-path="url(#clip0_1019_5442)">
<path d="M40.8732 21.3928C40.8732 19.6721 40.7341 18.4164 40.433 17.1143H20.8547V24.8807H32.3467C32.1151 26.8108 30.864 29.7175 28.0836 31.6706L28.0446 31.9306L34.2349 36.7435L34.6638 36.7864C38.6025 33.1357 40.8732 27.7641 40.8732 21.3928Z" fill="#4285F4"/>
<path d="M20.8547 41.8557C26.4848 41.8557 31.2113 39.9953 34.6637 36.7865L28.0835 31.6707C26.3227 32.9031 23.9593 33.7635 20.8547 33.7635C15.3404 33.7635 10.6601 30.1128 8.99178 25.0669L8.74724 25.0877L2.3105 30.0872L2.22632 30.322C5.65537 37.1584 12.6989 41.8557 20.8547 41.8557Z" fill="#34A853"/>
<path d="M8.99188 25.0669C8.55167 23.7647 8.2969 22.3694 8.2969 20.9278C8.2969 19.486 8.55167 18.0909 8.96872 16.7887L8.95706 16.5114L2.43966 11.4316L2.22642 11.5334C0.813139 14.3704 0.00219727 17.5561 0.00219727 20.9278C0.00219727 24.2995 0.813139 27.4851 2.22642 30.322L8.99188 25.0669Z" fill="#FBBC05"/>
<path d="M20.7436 8.09205C24.6592 8.09205 27.3004 9.78953 28.8065 11.2081L34.6916 5.44124C31.0772 2.06954 26.3737 0 20.7436 0C12.5878 0 5.54429 4.69711 2.11523 11.5335L8.85754 16.7888C10.5491 11.7428 15.2293 8.09205 20.7436 8.09205Z" fill="#EB4335"/>
</g>
<defs>
<clipPath id="clip0_1019_5442">
<rect width="40.8947" height="42" fill="white"/>
</clipPath>
</defs>
</svg>
